<?xml version="1.0" encoding="UTF-8"?>
<svg xmlns="http://www.w3.org/2000/svg" xmlns:xlink="http://www.w3.org/1999/xlink" width="72px" height="38px" viewBox="0 0 72 38" version="1.1">
<g id="surface1">
<path style=" stroke:none;fill-rule:nonzero;fill:rgb(0%,0%,0%);fill-opacity:1;" d="M 5.054688 18.179688 L 5.054688 34.011719 L 19.632812 34.011719 L 19.632812 2.34375 L 5.054688 2.34375 Z M 15.726562 7.09375 C 16.464844 7.46875 16.96875 8.289062 16.96875 9.128906 C 16.96875 10.242188 16.773438 10.691406 16.074219 11.179688 C 15.511719 11.589844 15.199219 11.628906 12.65625 11.6875 C 9.195312 11.785156 8.339844 11.667969 7.699219 11.003906 C 6.6875 9.988281 6.863281 7.9375 8.027344 7.234375 C 8.574219 6.878906 9.019531 6.839844 11.953125 6.839844 C 14.191406 6.839844 15.414062 6.917969 15.726562 7.09375 Z M 8.941406 12.707031 L 8.941406 13.292969 L 16.910156 13.292969 L 16.910156 15.246094 L 12.984375 15.285156 L 9.039062 15.34375 L 8.980469 15.871094 C 8.921875 16.378906 8.84375 16.417969 8.046875 16.417969 L 7.191406 16.417969 L 7.191406 12.121094 L 8.066406 12.121094 C 8.902344 12.121094 8.941406 12.140625 8.941406 12.707031 Z M 11.078125 17.789062 L 11.078125 18.765625 L 10.109375 18.765625 C 9.390625 18.765625 9.097656 18.84375 9 19.078125 C 8.804688 19.625 9.351562 19.742188 12.050781 19.742188 C 14.753906 19.742188 15.296875 19.625 15.105469 19.078125 C 15.007812 18.84375 14.695312 18.765625 13.800781 18.765625 L 12.636719 18.765625 L 12.636719 16.8125 L 13.996094 16.8125 C 16.210938 16.8125 16.949219 17.398438 16.949219 19.175781 C 16.949219 20.328125 16.542969 21.050781 15.648438 21.425781 C 14.851562 21.757812 9.816406 21.816406 8.765625 21.503906 C 7.347656 21.089844 6.726562 19.859375 7.171875 18.355469 C 7.503906 17.261719 8.300781 16.8125 9.875 16.8125 L 11.078125 16.8125 Z M 16.910156 23.261719 L 16.910156 24.238281 L 7.191406 24.238281 L 7.191406 22.285156 L 16.910156 22.285156 Z M 11.507812 24.921875 C 12.441406 25.058594 13.023438 25.800781 13.023438 26.800781 L 13.023438 27.5625 L 16.910156 27.5625 L 16.910156 29.515625 L 7.191406 29.515625 L 7.191406 27.835938 C 7.191406 26.035156 7.347656 25.546875 8.027344 25.175781 C 8.535156 24.902344 9.835938 24.667969 10.398438 24.746094 C 10.613281 24.785156 11.117188 24.863281 11.507812 24.921875 Z M 11.507812 24.921875 "/>
<path style=" stroke:none;fill-rule:nonzero;fill:rgb(0%,0%,0%);fill-opacity:1;" d="M 9 9.109375 C 8.804688 9.65625 9.351562 9.773438 12.050781 9.773438 C 14.753906 9.773438 15.296875 9.65625 15.105469 9.109375 C 15.007812 8.835938 14.558594 8.796875 12.050781 8.796875 C 9.542969 8.796875 9.097656 8.835938 9 9.109375 Z M 9 9.109375 "/>
<path style=" stroke:none;fill-rule:nonzero;fill:rgb(0%,0%,0%);fill-opacity:1;" d="M 9.078125 26.898438 C 9 26.976562 8.941406 27.152344 8.941406 27.308594 C 8.941406 27.484375 9.273438 27.5625 10.128906 27.5625 C 11.136719 27.5625 11.292969 27.523438 11.234375 27.210938 C 11.195312 26.957031 10.945312 26.859375 10.207031 26.820312 C 9.660156 26.78125 9.15625 26.820312 9.078125 26.898438 Z M 9.078125 26.898438 "/>
<path style=" stroke:none;fill-rule:nonzero;fill:rgb(0%,0%,0%);fill-opacity:1;" d="M 43.679688 5.21875 C 43.640625 5.316406 44.046875 7.878906 44.589844 10.945312 L 45.601562 16.515625 L 44.378906 22.675781 C 43.699219 26.054688 43.152344 28.929688 43.152344 29.066406 C 43.152344 29.261719 43.71875 29.320312 45.542969 29.320312 L 47.933594 29.320312 L 48.578125 25.175781 C 48.945312 22.890625 49.296875 20.796875 49.375 20.523438 C 49.453125 20.210938 49.703125 21.425781 50.132812 24.042969 C 50.460938 26.253906 50.792969 28.34375 50.871094 28.675781 L 50.96875 29.320312 L 53.398438 29.320312 C 55.828125 29.320312 55.828125 29.320312 55.730469 28.890625 C 55.671875 28.636719 55.089844 25.742188 54.425781 22.441406 L 53.242188 16.457031 L 54.234375 11.101562 C 54.757812 8.171875 55.207031 5.609375 55.207031 5.414062 C 55.207031 5.121094 54.953125 5.082031 52.96875 5.082031 C 51.335938 5.082031 50.695312 5.140625 50.636719 5.316406 C 50.578125 5.453125 50.324219 7.234375 50.054688 9.265625 C 49.800781 11.296875 49.546875 12.980469 49.507812 13.019531 C 49.472656 13.058594 49.199219 11.453125 48.90625 9.421875 C 48.617188 7.410156 48.324219 5.609375 48.265625 5.414062 C 48.1875 5.121094 47.914062 5.082031 45.972656 5.082031 C 44.746094 5.082031 43.71875 5.140625 43.679688 5.21875 Z M 43.679688 5.21875 "/>
<path style=" stroke:none;fill-rule:nonzero;fill:rgb(0%,0%,0%);fill-opacity:1;" d="M 20.410156 7.527344 L 20.410156 9.753906 L 21.828125 9.8125 L 23.230469 9.871094 L 23.289062 19.585938 L 23.324219 29.320312 L 27.992188 29.320312 L 27.992188 9.773438 L 30.90625 9.773438 L 30.90625 5.277344 L 20.410156 5.277344 Z M 20.410156 7.527344 "/>
<path style=" stroke:none;fill-rule:nonzero;fill:rgb(0%,0%,0%);fill-opacity:1;" d="M 32.269531 17.300781 L 32.269531 29.320312 L 42.179688 29.320312 L 42.179688 24.628906 L 37.128906 24.628906 L 37.128906 19.15625 L 41.597656 19.15625 L 41.597656 14.464844 L 37.128906 14.464844 L 37.128906 9.773438 L 41.792969 9.773438 L 41.792969 5.277344 L 32.269531 5.277344 Z M 32.269531 17.300781 "/>
<path style=" stroke:none;fill-rule:nonzero;fill:rgb(0%,0%,0%);fill-opacity:1;" d="M 56.371094 7.527344 L 56.371094 9.773438 L 59.289062 9.773438 L 59.289062 29.320312 L 64.148438 29.320312 L 64.148438 9.773438 L 66.867188 9.773438 L 66.867188 5.277344 L 56.371094 5.277344 Z M 56.371094 7.527344 "/>
</g>
</svg>
