<?xml version="1.0" standalone="no"?>
<!DOCTYPE svg PUBLIC "-//W3C//DTD SVG 20010904//EN"
 "http://www.w3.org/TR/2001/REC-SVG-20010904/DTD/svg10.dtd">
<svg version="1.0" xmlns="http://www.w3.org/2000/svg"
 width="500.000000pt" height="500.000000pt" viewBox="0 0 500.000000 500.000000"
 preserveAspectRatio="xMidYMid meet">

<g transform="translate(0.000000,500.000000) scale(0.100000,-0.100000)"
fill="#000000" stroke="none">
<path d="M0 2500 l0 -2500 2500 0 2500 0 0 2500 0 2500 -2500 0 -2500 0 0
-2500z m2735 1985 c452 -52 868 -257 1192 -587 163 -166 262 -306 368 -523
273 -554 273 -1196 0 -1752 -126 -256 -304 -483 -525 -667 -81 -68 -199 -150
-205 -144 -3 2 -6 350 -7 774 l-3 769 233 3 232 2 0 180 0 180 -700 0 -700 0
0 -180 0 -180 233 0 234 0 7 -882 c5 -662 4 -883 -4 -888 -7 -4 -61 -19 -120
-34 -532 -132 -1104 -31 -1573 277 -290 189 -535 469 -692 790 -311 634 -263
1386 125 1977 149 227 356 431 590 583 384 248 850 356 1315 302z"/>
<path d="M1240 3840 c0 -20 5 -20 322 -18 298 3 323 4 326 21 3 16 -17 17
-322 17 -320 0 -326 0 -326 -20z"/>
<path d="M1330 2665 l0 -865 275 0 275 0 0 279 0 279 273 5 c149 2 282 7 295
12 l22 7 0 244 0 244 188 2 187 3 3 75 c6 157 -55 318 -162 424 -74 73 -138
110 -242 136 -72 19 -112 20 -596 20 l-518 0 0 -865z m875 435 c52 -25 76 -67
82 -144 4 -50 0 -69 -19 -106 -38 -73 -68 -84 -240 -88 l-148 -4 0 181 0 181
142 0 c121 0 148 -3 183 -20z"/>
<path d="M1310 1510 l0 -110 290 0 290 0 0 110 0 110 -290 0 -290 0 0 -110z"/>
<path d="M1310 1130 l0 -110 290 0 290 0 0 110 0 110 -290 0 -290 0 0 -110z"/>
</g>
</svg>
